<svg width="22" height="23" viewBox="0 0 22 23" fill="none" xmlns="http://www.w3.org/2000/svg">
<path d="M9.99946 7.85018H12.1224V5.66126H9.99946M11.0609 19.8892C6.37982 19.8892 2.56912 15.9601 2.56912 11.1336C2.56912 6.30699 6.37982 2.37788 11.0609 2.37788C15.742 2.37788 19.5527 6.30699 19.5527 11.1336C19.5527 15.9601 15.742 19.8892 11.0609 19.8892ZM11.0609 0.188965C9.66698 0.188965 8.28668 0.472055 6.99884 1.02207C5.71099 1.57209 4.54083 2.37826 3.55516 3.39456C1.5645 5.44707 0.446167 8.23087 0.446167 11.1336C0.446167 14.0362 1.5645 16.82 3.55516 18.8726C4.54083 19.8889 5.71099 20.695 6.99884 21.245C8.28668 21.7951 9.66698 22.0782 11.0609 22.0782C13.8761 22.0782 16.576 20.9251 18.5667 18.8726C20.5574 16.82 21.6757 14.0362 21.6757 11.1336C21.6757 9.69629 21.4011 8.2731 20.8677 6.94524C20.3343 5.61738 19.5524 4.41086 18.5667 3.39456C17.581 2.37826 16.4109 1.57209 15.123 1.02207C13.8352 0.472055 12.4549 0.188965 11.0609 0.188965ZM9.99946 16.6059H12.1224V10.0391H9.99946V16.6059Z" fill="white"/>
</svg>
