<svg width="20" height="21" viewBox="0 0 20 21" fill="none" xmlns="http://www.w3.org/2000/svg">
<path d="M12.0973 1.76615C12.1175 1.68797 12.1524 1.61467 12.2002 1.55043C12.2479 1.4862 12.3074 1.43229 12.3753 1.39179C12.4432 1.35129 12.5183 1.32499 12.596 1.3144C12.6738 1.30381 12.7529 1.30914 12.8287 1.33007C14.2708 1.71794 15.5866 2.49522 16.6405 3.58184C17.6943 4.66845 18.4482 6.02511 18.8244 7.51206C18.8447 7.59021 18.8498 7.67172 18.8396 7.75194C18.8293 7.83215 18.8038 7.90948 18.7645 7.97953C18.7252 8.04957 18.673 8.11094 18.6107 8.16013C18.5484 8.20932 18.4773 8.24537 18.4014 8.26621C18.3511 8.28003 18.2993 8.28693 18.2472 8.28673C18.1156 8.28682 17.9878 8.2421 17.8834 8.15953C17.779 8.07697 17.704 7.96117 17.67 7.83014C17.3471 6.55289 16.6996 5.38755 15.7944 4.45421C14.8892 3.52087 13.759 2.8533 12.5202 2.5203C12.4444 2.49946 12.3733 2.46341 12.311 2.41422C12.2487 2.36502 12.1964 2.30365 12.1571 2.23361C12.1178 2.16357 12.0923 2.08623 12.0821 2.00602C12.0718 1.92581 12.077 1.8443 12.0973 1.76615ZM11.7241 5.80368C13.172 6.20179 14.0995 7.15807 14.4856 8.65098C14.5196 8.78202 14.5946 8.89781 14.699 8.98038C14.8033 9.06295 14.9312 9.10766 15.0628 9.10758C15.1148 9.10777 15.1667 9.10087 15.217 9.08706C15.2928 9.06621 15.3639 9.03017 15.4262 8.98097C15.4885 8.93178 15.5408 8.87041 15.5801 8.80037C15.6194 8.73033 15.6449 8.65299 15.6551 8.57278C15.6654 8.49257 15.6603 8.41106 15.6399 8.33291C15.1424 6.41315 13.8945 5.12648 12.0326 4.61345C11.9568 4.59257 11.8777 4.58728 11.8 4.59789C11.7222 4.6085 11.6472 4.63481 11.5793 4.6753C11.5114 4.71579 11.4518 4.76968 11.4041 4.83389C11.3564 4.8981 11.3214 4.97137 11.3012 5.04953C11.2809 5.12768 11.2758 5.20918 11.2861 5.28937C11.2964 5.36957 11.3219 5.44689 11.3611 5.51692C11.4004 5.58695 11.4527 5.64831 11.515 5.69752C11.5772 5.74672 11.6483 5.78279 11.7241 5.80368ZM19.6294 15.7564C19.4589 17.0977 18.8206 18.3291 17.8336 19.2204C16.8466 20.1117 15.5787 20.6019 14.2667 20.5994C6.47476 20.5994 0.135752 14.0634 0.135752 6.02941C0.133239 4.67711 0.608261 3.37012 1.47209 2.35256C2.33592 1.335 3.52947 0.676477 4.8298 0.499995C5.12914 0.462488 5.43219 0.526128 5.69346 0.681356C5.95472 0.836583 6.16009 1.07502 6.27872 1.36086L8.37845 6.19358C8.47116 6.41236 8.50952 6.65152 8.49006 6.88943C8.4706 7.12734 8.39394 7.3565 8.267 7.55618C8.25419 7.57651 8.24024 7.59604 8.2252 7.61467L6.12845 10.186C6.11572 10.2126 6.1091 10.2419 6.1091 10.2716C6.1091 10.3013 6.11572 10.3307 6.12845 10.3573C6.89073 11.9662 8.52673 13.6407 10.109 14.4256C10.1354 14.438 10.1643 14.444 10.1933 14.4429C10.2223 14.4418 10.2507 14.4338 10.2762 14.4195L12.7332 12.2648C12.7507 12.249 12.7693 12.2346 12.7889 12.2217C12.9817 12.0891 13.2035 12.0083 13.4343 11.9864C13.665 11.9645 13.8974 12.0024 14.1104 12.0965L18.8114 14.2686C19.085 14.3936 19.3122 14.6061 19.4595 14.8746C19.6069 15.1431 19.6664 15.4534 19.6294 15.7595V15.7564ZM18.4462 15.6046C18.4496 15.5617 18.4397 15.5188 18.4181 15.4819C18.3965 15.4451 18.3642 15.4162 18.3258 15.3994L13.6238 13.2272C13.5981 13.217 13.5706 13.2126 13.5431 13.2144C13.5156 13.2161 13.4888 13.224 13.4646 13.2375L11.0086 15.3922C10.9907 15.4076 10.9718 15.4219 10.9529 15.4353C10.7525 15.573 10.521 15.6549 10.2808 15.6728C10.0407 15.6908 9.8001 15.6443 9.58256 15.5379C7.7555 14.6278 5.9344 12.7675 5.05172 10.9011C4.9479 10.6781 4.90168 10.4313 4.91755 10.1845C4.93341 9.93766 5.01082 9.69926 5.14227 9.49235C5.15509 9.47177 5.16939 9.45222 5.18506 9.43386L7.27982 6.85949C7.2918 6.83261 7.298 6.80339 7.298 6.77381C7.298 6.74424 7.2918 6.71501 7.27982 6.68814L5.18506 1.85439C5.17123 1.81557 5.14635 1.78196 5.11368 1.75798C5.081 1.73399 5.04206 1.72075 5.00196 1.71998H4.97907C3.96696 1.85879 3.03846 2.37269 2.36694 3.16572C1.69542 3.95874 1.3268 4.97666 1.32991 6.02941C1.32991 13.3842 7.13354 19.3681 14.2667 19.3681C15.2878 19.3713 16.2752 18.9911 17.0443 18.2985C17.8135 17.6059 18.3118 16.6483 18.4462 15.6046Z" fill="white"/>
</svg>
