<svg width="23" height="16" viewBox="0 0 23 16" fill="none" xmlns="http://www.w3.org/2000/svg">
<path d="M21.515 6.4333H1.46365C0.598935 6.4333 0.523743 7.13353 0.523743 7.99981C0.523743 8.86609 0.598935 9.56633 1.46365 9.56633H21.515C22.3798 9.56633 22.4549 8.86609 22.4549 7.99981C22.4549 7.13353 22.3798 6.4333 21.515 6.4333ZM21.515 12.6994H1.46365C0.598935 12.6994 0.523743 13.3996 0.523743 14.2659C0.523743 15.1322 0.598935 15.8324 1.46365 15.8324H21.515C22.3798 15.8324 22.4549 15.1322 22.4549 14.2659C22.4549 13.3996 22.3798 12.6994 21.515 12.6994ZM1.46365 3.30027H21.515C22.3798 3.30027 22.4549 2.60003 22.4549 1.73375C22.4549 0.867469 22.3798 0.167236 21.515 0.167236H1.46365C0.598935 0.167236 0.523743 0.867469 0.523743 1.73375C0.523743 2.60003 0.598935 3.30027 1.46365 3.30027Z" fill="#002561"/>
</svg>
