<svg width="27" height="27" viewBox="0 0 27 27" fill="none" xmlns="http://www.w3.org/2000/svg">
<path d="M2.67139 16.417V9.8502C2.67139 8.10859 3.34239 6.43831 4.53678 5.20681C5.73118 3.9753 7.35112 3.28345 9.04025 3.28345H17.5321C19.2212 3.28345 20.8411 3.9753 22.0355 5.20681C23.2299 6.43831 23.9009 8.10859 23.9009 9.8502V16.417C23.9009 18.1586 23.2299 19.8289 22.0355 21.0604C20.8411 22.2919 19.2212 22.9837 17.5321 22.9837H9.04025C7.35112 22.9837 5.73118 22.2919 4.53678 21.0604C3.34239 19.8289 2.67139 18.1586 2.67139 16.417Z" stroke="white" stroke-width="1.5"/>
<path d="M16.4706 9.8503C16.4706 9.8503 17.5321 11.0816 17.5321 13.1337C17.5321 15.1858 16.4706 16.4171 16.4706 16.4171M13.2862 13.1446L13.2968 13.1326M18.5936 7.66138C18.5936 7.66138 20.7165 9.61608 20.7165 13.1337C20.7165 16.6513 18.5936 18.606 18.5936 18.606M10.1017 9.8503C10.1017 9.8503 9.04027 11.0816 9.04027 13.1337C9.04027 15.1858 10.1017 16.4171 10.1017 16.4171M7.97879 7.66138C7.97879 7.66138 5.85583 9.61608 5.85583 13.1337C5.85583 16.6513 7.97879 18.606 7.97879 18.606" stroke="white" stroke-width="1.5" stroke-linecap="round" stroke-linejoin="round"/>
</svg>
