<svg width="22" height="22" viewBox="0 0 22 22" fill="none" xmlns="http://www.w3.org/2000/svg">
<path d="M11.2088 7.4335L2.67355 16.2443C2.48055 16.4433 2.33081 16.6732 2.22432 16.9339C2.11784 17.1947 2.0646 17.4691 2.0646 17.7573C2.0646 18.0455 2.11784 18.32 2.22432 18.5808C2.33081 18.8415 2.48055 19.068 2.67355 19.2601C2.86655 19.4523 3.08617 19.6032 3.33241 19.713C3.57865 19.8228 3.84486 19.8811 4.13103 19.888C4.4039 19.888 4.66678 19.8331 4.91967 19.7233C5.17257 19.6135 5.39885 19.4591 5.5985 19.2601L11.0092 13.6916V15.5546L6.50693 20.1968C6.18749 20.5262 5.82478 20.7766 5.41881 20.9482C5.01285 21.1197 4.58359 21.2055 4.13103 21.2055C3.67183 21.2055 3.24257 21.1163 2.84326 20.9379C2.44395 20.7595 2.08789 20.509 1.7751 20.1865C1.46231 19.864 1.22272 19.5003 1.05634 19.0954C0.88996 18.6906 0.800115 18.2445 0.786804 17.7573C0.786804 17.2839 0.869994 16.8413 1.03637 16.4296C1.20275 16.0178 1.44567 15.6439 1.76512 15.3076L9.81123 7.01148C9.78461 6.85366 9.76465 6.69583 9.75134 6.53801C9.73803 6.38018 9.73137 6.21893 9.73137 6.05424C9.73137 5.51214 9.79792 4.99063 9.93103 4.48971C10.0641 3.98878 10.2571 3.51531 10.51 3.06928C10.7629 2.62325 11.0657 2.22182 11.4185 1.865C11.7712 1.50818 12.1605 1.19939 12.5864 0.938633C13.0124 0.677878 13.4683 0.47888 13.9541 0.341641C14.4399 0.204401 14.949 0.13235 15.4815 0.125488C15.8408 0.125488 16.1703 0.152936 16.4697 0.207832C16.7692 0.262728 17.0621 0.345072 17.3482 0.454863C17.6344 0.564655 17.9106 0.695033 18.1768 0.845996C18.443 0.99696 18.7292 1.16165 19.0353 1.34006L15.1021 5.39549L16.1203 6.44537L20.0536 2.38994C20.2133 2.67814 20.363 2.96635 20.5028 3.25455C20.6425 3.54275 20.769 3.84125 20.8821 4.15004C20.9953 4.45883 21.0851 4.76762 21.1517 5.07641C21.2182 5.3852 21.2515 5.71457 21.2515 6.06453C21.2515 6.51742 21.1983 6.96688 21.0918 7.41291C20.9853 7.85894 20.8289 8.28438 20.6226 8.68924C20.4163 9.0941 20.1767 9.47493 19.9038 9.83176C19.631 10.1886 19.3148 10.5042 18.9555 10.7787C18.6493 10.6552 18.3365 10.5591 18.0171 10.4905C17.6976 10.4219 17.3715 10.3807 17.0388 10.367C17.4713 10.2023 17.8673 9.97586 18.2267 9.68766C18.5861 9.39945 18.8922 9.07008 19.1451 8.69953C19.398 8.32898 19.5977 7.9207 19.7441 7.47467C19.8905 7.02864 19.9604 6.56546 19.9537 6.08512C19.9537 5.57047 19.8739 5.07641 19.7141 4.60293L16.1203 8.29811L13.3052 5.39549L16.889 1.69002C16.4365 1.52533 15.9673 1.44299 15.4815 1.44299C14.8625 1.44299 14.2835 1.56307 13.7444 1.80324C13.2054 2.04341 12.7329 2.37279 12.3269 2.79137C11.9209 3.20995 11.6015 3.69715 11.3685 4.25297C11.1356 4.80879 11.0158 5.40921 11.0092 6.05424C11.0092 6.28755 11.0291 6.51742 11.0691 6.74387C11.109 6.97031 11.1556 7.20019 11.2088 7.4335ZM16.7592 11.983C17.3782 11.983 17.9572 12.1031 18.4962 12.3432C19.0353 12.5834 19.5112 12.9128 19.9238 13.3314C20.3364 13.7499 20.6559 14.2371 20.8821 14.793C21.1084 15.3488 21.2249 15.9492 21.2315 16.5942C21.2315 17.2324 21.1151 17.8294 20.8821 18.3852C20.6492 18.941 20.3298 19.4317 19.9238 19.8571C19.5178 20.2826 19.0453 20.6119 18.5062 20.8452C17.9672 21.0785 17.3848 21.1986 16.7592 21.2055C16.1403 21.2055 15.5613 21.0854 15.0222 20.8452C14.4832 20.6051 14.0073 20.2757 13.5947 19.8571C13.1821 19.4385 12.8626 18.9513 12.6364 18.3955C12.4101 17.8397 12.2936 17.2393 12.287 16.5942C12.287 15.9561 12.4034 15.3591 12.6364 14.8033C12.8693 14.2474 13.1887 13.7568 13.5947 13.3314C14.0007 12.9059 14.4732 12.5765 15.0123 12.3432C15.5513 12.1099 16.1337 11.9899 16.7592 11.983ZM13.5648 16.5942C13.5648 17.0471 13.6479 17.4726 13.8143 17.8706C13.9807 18.2686 14.207 18.6185 14.4932 18.9204C14.7793 19.2224 15.1187 19.4591 15.5114 19.6307C15.9041 19.8022 16.32 19.888 16.7592 19.888C17.072 19.888 17.3782 19.8434 17.6777 19.7542C17.9771 19.665 18.2567 19.5277 18.5162 19.3425L14.0938 14.7827C13.9208 15.0503 13.791 15.3385 13.7045 15.6473C13.618 15.9561 13.5714 16.2717 13.5648 16.5942ZM19.4246 18.4058C19.5977 18.1382 19.7275 17.85 19.814 17.5412C19.9005 17.2324 19.9471 16.9168 19.9537 16.5942C19.9537 16.1413 19.8705 15.7159 19.7042 15.3179C19.5378 14.9199 19.3082 14.5734 19.0154 14.2783C18.7225 13.9833 18.3831 13.7465 17.9971 13.5681C17.6111 13.3897 17.1985 13.3005 16.7592 13.3005C16.4465 13.3005 16.1403 13.3451 15.8408 13.4343C15.5413 13.5235 15.2618 13.6607 15.0023 13.846L19.4246 18.4058Z" fill="white"/>
</svg>
