<svg width="46" height="47" viewBox="0 0 46 47" fill="none" xmlns="http://www.w3.org/2000/svg">
<path d="M30.3333 31.1333C38.6854 30.9979 44.9166 24.8145 44.9166 16.55C44.9166 10.275 42.8396 12.352 40.75 14.4666C38.6854 16.5083 34.5 20.7166 34.5 20.7166L26.1666 12.3833C26.1666 12.3833 30.375 8.19788 32.4166 6.1333C34.5312 4.04371 34.5312 1.96663 30.3333 1.96663C22.0687 1.96663 15.8604 8.19788 15.75 16.55C15.8375 18.5833 15.75 22.8 15.75 22.8C11.8229 26.752 6.7083 31.8687 3.24996 35.3C-2.85837 41.4333 5.44996 49.7416 11.5833 43.6333C15.0208 40.1708 20.152 35.0395 24.0833 31.1333C24.0833 31.1333 28.3 31.0458 30.3333 31.1333Z" stroke="white" stroke-width="2"/>
</svg>
