<svg width="43" height="39" viewBox="0 0 43 39" fill="none" xmlns="http://www.w3.org/2000/svg">
<path d="M4.57604 39.0083C3.52187 39.0083 2.64188 38.6554 1.93604 37.9495C1.23021 37.2437 0.876528 36.3629 0.875 35.3073V10.626C0.875 9.57184 1.22868 8.69184 1.93604 7.98601C2.6434 7.28018 3.5234 6.9265 4.57604 6.92497H14.625V3.75101C14.625 2.69685 14.9787 1.81685 15.686 1.11101C16.3934 0.40518 17.2734 0.0515003 18.326 0.0499725H24.674C25.7281 0.0499725 26.6089 0.403653 27.3163 1.11101C28.0236 1.81837 28.3765 2.69837 28.375 3.75101V6.92497H38.424C39.4781 6.92497 40.3581 7.27865 41.064 7.98601C41.7698 8.69337 42.1235 9.57337 42.125 10.626V35.3073C42.125 36.3614 41.7721 37.2414 41.0662 37.9473C40.3604 38.6531 39.4797 39.0068 38.424 39.0083H4.57604ZM4.57604 36.7166H38.424C38.7753 36.7166 39.0985 36.57 39.3933 36.2766C39.6882 35.9833 39.8349 35.6602 39.8333 35.3073V10.626C39.8333 10.2746 39.6867 9.9515 39.3933 9.65664C39.1 9.36178 38.7769 9.21511 38.424 9.21664H4.57604C4.22465 9.21664 3.90153 9.3633 3.60667 9.65664C3.31181 9.94997 3.16514 10.2731 3.16667 10.626V35.3073C3.16667 35.6586 3.31333 35.9818 3.60667 36.2766C3.9 36.5715 4.22312 36.7182 4.57604 36.7166ZM16.9167 6.92497H26.0833V3.75101C26.0833 3.39962 25.9367 3.0765 25.6433 2.78164C25.35 2.48678 25.0269 2.34011 24.674 2.34164H18.326C17.9747 2.34164 17.6515 2.48831 17.3567 2.78164C17.0618 3.07497 16.9151 3.3981 16.9167 3.75101V6.92497ZM20.3542 24.1125V30.9875H22.6458V24.1125H29.5208V21.8208H22.6458V14.9458H20.3542V21.8208H13.4792V24.1125H20.3542Z" fill="white"/>
</svg>
