<svg width="36" height="46" viewBox="0 0 36 46" fill="none" xmlns="http://www.w3.org/2000/svg">
<path d="M18 34.1333C16.743 34.1336 15.532 33.6603 14.6082 32.8079C13.6844 31.9554 13.1156 30.7863 13.015 29.5333C9.68047 28.353 6.87012 26.0326 5.08006 22.9817C3.28999 19.9308 2.63531 16.3456 3.23156 12.859C3.82782 9.37232 5.63669 6.20842 8.33885 3.92575C11.041 1.64309 14.4627 0.388452 18 0.383301C21.7622 0.382756 25.3873 1.79602 28.1564 4.34286C30.9255 6.88971 32.6365 10.3842 32.95 14.1333C32.9604 14.2959 32.937 14.4589 32.881 14.612C32.8251 14.765 32.7379 14.9048 32.625 15.0223C32.5122 15.1399 32.3761 15.2327 32.2255 15.2948C32.0748 15.357 31.9129 15.3871 31.75 15.3833C31.4151 15.3749 31.0954 15.2423 30.8528 15.0113C30.6102 14.7803 30.4622 14.4674 30.4375 14.1333C30.2148 11.9229 29.4071 9.81175 28.0975 8.01723C26.7878 6.22271 25.0235 4.80965 22.9863 3.92352C20.9491 3.03739 18.7125 2.71021 16.5068 2.97566C14.3012 3.24112 12.2061 4.08961 10.4373 5.4338C8.66847 6.77798 7.28986 8.56929 6.44338 10.6233C5.59689 12.6773 5.31312 14.9198 5.62127 17.1199C5.92942 19.3201 6.81836 21.3983 8.19657 23.1407C9.57478 24.8832 11.3925 26.2268 13.4625 27.0333C13.8392 26.2194 14.4278 25.5218 15.1667 25.0136C15.9056 24.5054 16.7676 24.2053 17.6623 24.1447C18.5571 24.0841 19.4517 24.2653 20.2523 24.6693C21.053 25.0732 21.7303 25.6851 22.2132 26.4408C22.6962 27.1964 22.967 28.0681 22.9973 28.9644C23.0276 29.8607 22.8162 30.7486 22.3854 31.5352C21.9546 32.3217 21.3202 32.9779 20.5487 33.435C19.7771 33.8921 18.8968 34.1333 18 34.1333ZM5.5225 27.8833H5.75C6.725 28.8358 7.8075 29.6758 8.98 30.3833H5.5225C4.12 30.3833 3 31.5008 3 32.8833C3 36.1558 4.555 38.5933 7.1825 40.2658C9.8575 41.9733 13.6625 42.8833 18 42.8833C22.3375 42.8833 26.1425 41.9733 28.8175 40.2658C31.4425 38.5908 33 36.1583 33 32.8833C33 32.2203 32.7366 31.5844 32.2678 31.1155C31.7989 30.6467 31.163 30.3833 30.5 30.3833H25.3975C25.5374 29.5558 25.5374 28.7108 25.3975 27.8833H30.5C31.8261 27.8833 33.0979 28.4101 34.0355 29.3478C34.9732 30.2854 35.5 31.5572 35.5 32.8833C35.5 37.1108 33.4175 40.2983 30.1625 42.3758C26.9575 44.4183 22.6375 45.3833 18 45.3833C13.3625 45.3833 9.0425 44.4183 5.8375 42.3758C2.5825 40.3008 0.5 37.1083 0.5 32.8833C0.5 30.1008 2.7575 27.8833 5.5225 27.8833ZM28 15.3833C28.0005 17.0749 27.572 18.739 26.7543 20.2199C25.9367 21.7008 24.7568 22.95 23.325 23.8508C22.6576 23.1778 21.8687 22.6375 21 22.2583C22.5792 21.5691 23.8729 20.3571 24.6636 18.8262C25.4544 17.2953 25.6938 15.5388 25.3418 13.8521C24.9898 12.1654 24.0677 10.6514 22.7306 9.56454C21.3936 8.47773 19.7231 7.88444 18 7.88444C16.2769 7.88444 14.6064 8.47773 13.2694 9.56454C11.9323 10.6514 11.0102 12.1654 10.6582 13.8521C10.3062 15.5388 10.5456 17.2953 11.3364 18.8262C12.1271 20.3571 13.4208 21.5691 15 22.2583C14.125 22.6408 13.3375 23.1833 12.675 23.8508C10.7761 22.6566 9.33378 20.8586 8.58 18.7458C8.19546 17.6665 7.99927 16.5291 8 15.3833C8 12.7311 9.05357 10.1876 10.9289 8.31223C12.8043 6.43687 15.3478 5.3833 18 5.3833C20.6522 5.3833 23.1957 6.43687 25.0711 8.31223C26.9464 10.1876 28 12.7311 28 15.3833Z" fill="white"/>
</svg>
